<svg width="48" height="48" viewBox="0 0 48 48" xmlns="http://www.w3.org/2000/svg">
  <defs>
    <linearGradient id="gradient1" x1="0%" y1="0%" x2="100%" y2="100%">
      <stop offset="0%" style="stop-color:#2ECCB0;stop-opacity:1" />
      <stop offset="100%" style="stop-color:#FFC300;stop-opacity:1" />
    </linearGradient>
    <linearGradient id="gradient2" x1="0%" y1="0%" x2="100%" y2="100%">
      <stop offset="0%" style="stop-color:#00AEEF;stop-opacity:1" />
      <stop offset="100%" style="stop-color:#2ECCB0;stop-opacity:1" />
    </linearGradient>
  </defs>
  
  <!-- 3D Isometric Cube Base -->
  <path d="M24 8 L40 16 L40 32 L24 40 L8 32 L8 16 Z" fill="url(#gradient1)" opacity="0.9"/>
  <path d="M24 8 L40 16 L24 24 L8 16 Z" fill="url(#gradient2)" opacity="0.7"/>
  <path d="M8 16 L8 32 L24 40 L24 24 Z" fill="url(#gradient1)" opacity="0.6"/>
  <path d="M24 24 L40 32 L40 16 L24 8 Z" fill="url(#gradient2)" opacity="0.8"/>
  
  <!-- Stylized E -->
  <g transform="translate(24,24)">
    <rect x="-6" y="-8" width="2" height="16" fill="white" opacity="0.9"/>
    <rect x="-6" y="-8" width="8" height="2" fill="white" opacity="0.9"/>
    <rect x="-6" y="-1" width="6" height="2" fill="white" opacity="0.9"/>
    <rect x="-6" y="6" width="8" height="2" fill="white" opacity="0.9"/>
  </g>
</svg>